# xmcd
#
# Track frame offsets:
#	150
#	3140
#	19619
#	35579
#	48710
#	66960
#	70830
#	85401
#	98179
#	112150
#	125261
#	141781
#	150492
#
# Disc length: 2210 seconds
#
# Revision: 1
# Processed by: cddbd v1.5.1PL0 Copyright (c) Steve Scherf et al.
# Submitted via: audiograbber 1.83.01
#
DISCID=ab08a00d
DTITLE=AG Flek - Tramtárie
DYEAR=1900
DGENRE=Country
TTITLE0=Plechovy bubinek
TTITLE1=Muzes me holka
TTITLE2=Bila cara
TTITLE3=Namesti
TTITLE4=Cafe Nostalgia
TTITLE5=Kdyby
TTITLE6=Na konci leta
TTITLE7=Rehradice
TTITLE8=Vzpominka na 1.maj
TTITLE9=Poutník
TTITLE10=Sterbinou ve dverich
TTITLE11=Kdy jindy mel bych uz pit
TTITLE12=Tramtaryje
EXTD=
EXTT0=
EXTT1=
EXTT2=
EXTT3=
EXTT4=
EXTT5=
EXTT6=
EXTT7=
EXTT8=
EXTT9=
EXTT10=
EXTT11=
EXTT12=
PLAYORDER=
